<svg width="77" height="32" viewBox="0 0 77 32" fill="none" xmlns="http://www.w3.org/2000/svg">
<path d="M20.605 16.9997V10.8197H21.775C22.039 10.8197 22.207 10.9427 22.279 11.1887L22.405 11.9897C22.573 11.7977 22.747 11.6237 22.927 11.4677C23.107 11.3057 23.299 11.1677 23.503 11.0537C23.713 10.9337 23.935 10.8407 24.169 10.7747C24.409 10.7087 24.667 10.6757 24.943 10.6757C25.237 10.6757 25.507 10.7177 25.753 10.8017C25.999 10.8857 26.215 11.0057 26.401 11.1617C26.593 11.3177 26.758 11.5067 26.896 11.7287C27.034 11.9507 27.148 12.1997 27.238 12.4757C27.376 12.1577 27.55 11.8847 27.76 11.6567C27.97 11.4287 28.204 11.2427 28.462 11.0987C28.72 10.9547 28.993 10.8497 29.281 10.7837C29.575 10.7117 29.872 10.6757 30.172 10.6757C30.664 10.6757 31.102 10.7537 31.486 10.9097C31.876 11.0657 32.203 11.2937 32.467 11.5937C32.737 11.8877 32.941 12.2507 33.079 12.6827C33.217 13.1147 33.286 13.6067 33.286 14.1587V19.9997H31.351V14.1587C31.351 13.5107 31.21 13.0247 30.928 12.7007C30.652 12.3707 30.241 12.2057 29.695 12.2057C29.449 12.2057 29.218 12.2477 29.002 12.3317C28.786 12.4157 28.597 12.5387 28.435 12.7007C28.273 12.8627 28.144 13.0667 28.048 13.3127C27.958 13.5527 27.913 13.8347 27.913 14.1587V19.9997H25.978V14.1587C25.978 13.4867 25.843 12.9947 25.573 12.6827C25.303 12.3647 24.907 12.2057 24.385 12.2057C24.025 12.2057 23.692 12.2987 23.386 12.4847C23.08 12.6647 22.798 12.9137 22.54 13.2317V18L20.605 16.9997Z" fill="url(#paint0_linear_30_1951)"/>
<path d="M41.3274 14.3747C41.3274 14.0507 41.2794 13.7507 41.1834 13.4747C41.0934 13.1927 40.9584 12.9497 40.7784 12.7457C40.5984 12.5357 40.3734 12.3737 40.1034 12.2597C39.8394 12.1397 39.5334 12.0797 39.1854 12.0797C38.4834 12.0797 37.9314 12.2807 37.5294 12.6827C37.1274 13.0847 36.8724 13.6487 36.7644 14.3747H41.3274ZM36.7104 15.5627C36.7344 16.0847 36.8154 16.5377 36.9534 16.9217C37.0914 17.2997 37.2744 17.6147 37.5024 17.8667C37.7364 18.1187 38.0124 18.3077 38.3304 18.4337C38.6544 18.5537 39.0144 18.6137 39.4104 18.6137C39.7884 18.6137 40.1154 18.5717 40.3914 18.4877C40.6674 18.3977 40.9074 18.3017 41.1114 18.1997C41.3154 18.0917 41.4894 17.9957 41.6334 17.9117C41.7774 17.8217 41.9094 17.7767 42.0294 17.7767C42.1854 17.7767 42.3054 17.8367 42.3894 17.9567L42.9384 18.6677C42.7104 18.9377 42.4524 19.1657 42.1644 19.3517C41.8764 19.5377 41.5704 19.6907 41.2464 19.8107C40.9224 19.9247 40.5894 20.0057 40.2474 20.0537C39.9054 20.1077 39.5724 20.1347 39.2484 20.1347C38.6124 20.1347 38.0214 20.0297 37.4754 19.8197C36.9354 19.6037 36.4644 19.2887 36.0624 18.8747C35.6664 18.4607 35.3544 17.9477 35.1264 17.3357C34.9044 16.7237 34.7934 16.0187 34.7934 15.2207C34.7934 14.5847 34.8924 13.9907 35.0904 13.4387C35.2944 12.8867 35.5824 12.4067 35.9544 11.9987C36.3324 11.5907 36.7884 11.2697 37.3224 11.0357C37.8624 10.7957 38.4714 10.6757 39.1494 10.6757C39.7134 10.6757 40.2354 10.7687 40.7154 10.9547C41.1954 11.1347 41.6094 11.4017 41.9574 11.7557C42.3054 12.1097 42.5754 12.5447 42.7674 13.0607C42.9654 13.5707 43.0644 14.1527 43.0644 14.8067C43.0644 15.1067 43.0314 15.3077 42.9654 15.4097C42.8994 15.5117 42.7794 15.5627 42.6054 15.5627H36.7104Z" fill="url(#paint1_linear_30_1951)"/>
<path d="M50.4879 13.0787C50.2179 12.7307 49.9209 12.4877 49.5969 12.3497C49.2729 12.2117 48.9219 12.1427 48.5439 12.1427C47.7879 12.1427 47.1969 12.4217 46.7709 12.9797C46.3449 13.5317 46.1319 14.3507 46.1319 15.4367C46.1319 16.0007 46.1799 16.4837 46.2759 16.8857C46.3719 17.2817 46.5099 17.6057 46.6899 17.8577C46.8699 18.1097 47.0889 18.2927 47.3469 18.4067C47.6049 18.5207 47.8959 18.5777 48.2199 18.5777C48.7119 18.5777 49.1349 18.4727 49.4889 18.2627C49.8489 18.0467 50.1819 17.7437 50.4879 17.3537V13.0787ZM52.4229 6.67969V19.9997H51.2529C50.9949 19.9997 50.8299 19.8767 50.7579 19.6307L50.5869 18.6317C50.2029 19.0817 49.7649 19.4447 49.2729 19.7207C48.7869 19.9967 48.2199 20.1347 47.5719 20.1347C47.0559 20.1347 46.5879 20.0327 46.1679 19.8287C45.7479 19.6187 45.3879 19.3157 45.0879 18.9197C44.7879 18.5237 44.5539 18.0347 44.3859 17.4527C44.2239 16.8647 44.1429 16.1927 44.1429 15.4367C44.1429 14.7527 44.2329 14.1197 44.4129 13.5377C44.5989 12.9557 44.8629 12.4517 45.2049 12.0257C45.5469 11.5937 45.9609 11.2577 46.4469 11.0177C46.9389 10.7717 47.4879 10.6487 48.0939 10.6487C48.6339 10.6487 49.0929 10.7357 49.4709 10.9097C49.8489 11.0777 50.1879 11.3147 50.4879 11.6207V6.67969H52.4229Z" fill="url(#paint2_linear_30_1951)"/>
<path d="M56.565 10.8197V19.9997H54.63V10.8197H56.565ZM56.889 8.04769C56.889 8.22169 56.853 8.38669 56.781 8.54269C56.715 8.69869 56.622 8.83669 56.502 8.95669C56.382 9.07069 56.241 9.16369 56.079 9.23569C55.923 9.30169 55.755 9.33469 55.575 9.33469C55.401 9.33469 55.236 9.30169 55.08 9.23569C54.93 9.16369 54.798 9.07069 54.684 8.95669C54.57 8.83669 54.477 8.69869 54.405 8.54269C54.339 8.38669 54.306 8.22169 54.306 8.04769C54.306 7.86769 54.339 7.69969 54.405 7.54369C54.477 7.38769 54.57 7.25269 54.684 7.13869C54.798 7.01869 54.93 6.92569 55.08 6.85969C55.236 6.78769 55.401 6.75169 55.575 6.75169C55.755 6.75169 55.923 6.78769 56.079 6.85969C56.241 6.92569 56.382 7.01869 56.502 7.13869C56.622 7.25269 56.715 7.38769 56.781 7.54369C56.853 7.69969 56.889 7.86769 56.889 8.04769Z" fill="url(#paint3_linear_30_1951)"/>
<path d="M59.3773 19.9997V12.3587L58.4773 12.2327C58.3273 12.2027 58.2043 12.1487 58.1083 12.0707C58.0183 11.9927 57.9733 11.8817 57.9733 11.7377V10.9457H59.3773V10.1717C59.3773 9.64969 59.4523 9.18169 59.6023 8.76769C59.7583 8.35369 59.9773 8.00269 60.2593 7.71469C60.5473 7.42669 60.8953 7.20769 61.3033 7.05769C61.7113 6.90169 62.1703 6.82369 62.6803 6.82369C62.8903 6.82369 63.0883 6.83869 63.2743 6.86869C63.4663 6.89869 63.6523 6.94369 63.8323 7.00369L63.7963 7.97569C63.7843 8.13769 63.7033 8.23369 63.5533 8.26369C63.4093 8.29369 63.2263 8.30869 63.0043 8.30869C62.7343 8.30869 62.4913 8.34169 62.2753 8.40769C62.0593 8.46769 61.8733 8.57269 61.7173 8.72269C61.5673 8.87269 61.4503 9.07069 61.3663 9.31669C61.2883 9.56269 61.2493 9.86869 61.2493 10.2347V10.9457H63.7603V12.3407H61.3123V19.9997H59.3773Z" fill="url(#paint4_linear_30_1951)"/>
<path d="M66.9132 10.8197V19.9997H64.9782V10.8197H66.9132ZM67.2372 8.04769C67.2372 8.22169 67.2012 8.38669 67.1292 8.54269C67.0632 8.69869 66.9702 8.83669 66.8502 8.95669C66.7302 9.07069 66.5892 9.16369 66.4272 9.23569C66.2712 9.30169 66.1032 9.33469 65.9232 9.33469C65.7492 9.33469 65.5842 9.30169 65.4282 9.23569C65.2782 9.16369 65.1462 9.07069 65.0322 8.95669C64.9182 8.83669 64.8252 8.69869 64.7532 8.54269C64.6872 8.38669 64.6542 8.22169 64.6542 8.04769C64.6542 7.86769 64.6872 7.69969 64.7532 7.54369C64.8252 7.38769 64.9182 7.25269 65.0322 7.13869C65.1462 7.01869 65.2782 6.92569 65.4282 6.85969C65.5842 6.78769 65.7492 6.75169 65.9232 6.75169C66.1032 6.75169 66.2712 6.78769 66.4272 6.85969C66.5892 6.92569 66.7302 7.01869 66.8502 7.13869C66.9702 7.25269 67.0632 7.38769 67.1292 7.54369C67.2012 7.69969 67.2372 7.86769 67.2372 8.04769Z" fill="url(#paint5_linear_30_1951)"/>
<path d="M75.5934 12.6197C75.5334 12.6977 75.4764 12.7577 75.4224 12.7997C75.3684 12.8417 75.2904 12.8627 75.1884 12.8627C75.0864 12.8627 74.9784 12.8267 74.8644 12.7547C74.7564 12.6827 74.6244 12.6047 74.4684 12.5207C74.3184 12.4307 74.1354 12.3497 73.9194 12.2777C73.7034 12.2057 73.4334 12.1697 73.1094 12.1697C72.6894 12.1697 72.3204 12.2447 72.0024 12.3947C71.6904 12.5447 71.4264 12.7607 71.2104 13.0427C71.0004 13.3187 70.8414 13.6577 70.7334 14.0597C70.6314 14.4557 70.5804 14.9027 70.5804 15.4007C70.5804 15.9167 70.6374 16.3757 70.7514 16.7777C70.8654 17.1797 71.0274 17.5187 71.2374 17.7947C71.4534 18.0707 71.7114 18.2807 72.0114 18.4247C72.3174 18.5687 72.6594 18.6407 73.0374 18.6407C73.4094 18.6407 73.7124 18.5957 73.9464 18.5057C74.1804 18.4157 74.3754 18.3167 74.5314 18.2087C74.6874 18.1007 74.8194 18.0017 74.9274 17.9117C75.0414 17.8217 75.1614 17.7767 75.2874 17.7767C75.4434 17.7767 75.5634 17.8367 75.6474 17.9567L76.1964 18.6677C75.9744 18.9377 75.7284 19.1657 75.4584 19.3517C75.1884 19.5377 74.9034 19.6907 74.6034 19.8107C74.3034 19.9247 73.9914 20.0057 73.6674 20.0537C73.3434 20.1077 73.0164 20.1347 72.6864 20.1347C72.1164 20.1347 71.5824 20.0297 71.0844 19.8197C70.5924 19.6037 70.1604 19.2947 69.7884 18.8927C69.4224 18.4847 69.1314 17.9897 68.9154 17.4077C68.7054 16.8197 68.6004 16.1507 68.6004 15.4007C68.6004 14.7227 68.6964 14.0957 68.8884 13.5197C69.0804 12.9377 69.3594 12.4367 69.7254 12.0167C70.0974 11.5967 70.5564 11.2697 71.1024 11.0357C71.6484 10.7957 72.2784 10.6757 72.9924 10.6757C73.6584 10.6757 74.2434 10.7837 74.7474 10.9997C75.2574 11.2157 75.7104 11.5217 76.1064 11.9177L75.5934 12.6197Z" fill="url(#paint6_linear_30_1951)"/>
<g filter="url(#filter0_f_30_1951)">
<path d="M19.4998 16.4999C30.5 23 33 26 50.4991 20.4994" stroke="#7DD8FF" stroke-width="2" stroke-linecap="round"/>
</g>
<g filter="url(#filter1_f_30_1951)">
<path d="M4.99998 23.0119C26.4999 35.9992 4.99991 12.0117 9.99996 5.51156C13.2877 1.23742 15.9999 16.5237 23.5 22.0119C31 27.5 38 29.0237 48.5 23.0119C59 17 69.0002 21.0118 70.0002 23.0119" stroke="url(#paint7_linear_30_1951)" stroke-width="2" stroke-linecap="round"/>
</g>
<defs>
<filter id="filter0_f_30_1951" x="15.0995" y="12.1" width="39.8" height="15.6682" filterUnits="userSpaceOnUse" color-interpolation-filters="sRGB">
<feFlood flood-opacity="0" result="BackgroundImageFix"/>
<feBlend mode="normal" in="SourceGraphic" in2="BackgroundImageFix" result="shape"/>
<feGaussianBlur stdDeviation="1.7" result="effect1_foregroundBlur_30_1951"/>
</filter>
<filter id="filter1_f_30_1951" x="0.599756" y="0.366601" width="73.8007" height="30.9094" filterUnits="userSpaceOnUse" color-interpolation-filters="sRGB">
<feFlood flood-opacity="0" result="BackgroundImageFix"/>
<feBlend mode="normal" in="SourceGraphic" in2="BackgroundImageFix" result="shape"/>
<feGaussianBlur stdDeviation="1.7" result="effect1_foregroundBlur_30_1951"/>
</filter>
<linearGradient id="paint0_linear_30_1951" x1="28.5" y1="16" x2="27.5" y2="19" gradientUnits="userSpaceOnUse">
<stop stop-color="#374151"/>
<stop offset="1" stop-color="#374151" stop-opacity="0"/>
</linearGradient>
<linearGradient id="paint1_linear_30_1951" x1="28.5" y1="16" x2="27.5" y2="19" gradientUnits="userSpaceOnUse">
<stop stop-color="#374151"/>
<stop offset="1" stop-color="#374151" stop-opacity="0"/>
</linearGradient>
<linearGradient id="paint2_linear_30_1951" x1="28.5" y1="16" x2="27.5" y2="19" gradientUnits="userSpaceOnUse">
<stop stop-color="#374151"/>
<stop offset="1" stop-color="#374151" stop-opacity="0"/>
</linearGradient>
<linearGradient id="paint3_linear_30_1951" x1="28.5" y1="16" x2="27.5" y2="19" gradientUnits="userSpaceOnUse">
<stop stop-color="#374151"/>
<stop offset="1" stop-color="#374151" stop-opacity="0"/>
</linearGradient>
<linearGradient id="paint4_linear_30_1951" x1="28.5" y1="16" x2="27.5" y2="19" gradientUnits="userSpaceOnUse">
<stop stop-color="#374151"/>
<stop offset="1" stop-color="#374151" stop-opacity="0"/>
</linearGradient>
<linearGradient id="paint5_linear_30_1951" x1="28.5" y1="16" x2="27.5" y2="19" gradientUnits="userSpaceOnUse">
<stop stop-color="#374151"/>
<stop offset="1" stop-color="#374151" stop-opacity="0"/>
</linearGradient>
<linearGradient id="paint6_linear_30_1951" x1="28.5" y1="16" x2="27.5" y2="19" gradientUnits="userSpaceOnUse">
<stop stop-color="#374151"/>
<stop offset="1" stop-color="#374151" stop-opacity="0"/>
</linearGradient>
<linearGradient id="paint7_linear_30_1951" x1="6.50987" y1="3.67021" x2="89.1708" y2="24.3308" gradientUnits="userSpaceOnUse">
<stop stop-color="#3531FF"/>
<stop offset="1" stop-color="#7B6FFF" stop-opacity="0"/>
</linearGradient>
</defs>
</svg>
