<svg width="1440" height="1230" viewBox="0 0 1440 1230" fill="none" xmlns="http://www.w3.org/2000/svg">
<path d="M-434.252 887.165C-275.066 837.945 -282.053 883.079 -160.445 685.036C-38.837 486.992 -42.507 451.324 -1.45663 376.113C37.8042 304.182 90.8018 227.302 234.421 337.321C349.316 425.337 468.102 435.601 513.132 429.732C554.784 419.042 652.647 377.044 710.888 294.572C783.689 191.483 792.711 201.729 892.01 226.035C991.309 250.34 1080.42 348.586 1151.39 296.489C1222.35 244.391 1272.8 145.398 1379.53 95.587C1486.27 45.7761 1494.12 -13.1187 1589.73 4.04418C1666.21 17.7744 1746.15 35.2245 1776.55 42.2333M-2.02896 1229.3C81.9395 1059.49 76.3128 1030.82 104.037 966.718C130.552 905.41 160.407 727.118 285.113 805.621C384.878 868.423 489.465 979.785 525.568 971.647C624.847 1017.38 634.861 918.437 675.995 847.153C727.411 758.049 735.493 765.686 817.872 777.963C900.25 790.241 979.853 863.277 1033.57 815.685C1087.28 768.093 1048.99 637.924 1131.9 589.506C1214.8 541.088 1288.68 538.775 1367.53 545.534C1430.61 550.941 1496.77 559.107 1521.96 562.515M-420.722 897.907C-265.221 847.211 -271.082 889.371 -153.457 696.235C-35.8314 503.099 -39.2412 467.862 0.806519 393.97C39.622 322.353 92.1587 242.158 235.242 351.096C349.709 438.246 467.733 451.717 512.477 445.749C555.814 437.038 651.004 392.965 708.655 310.814C780.719 208.126 789.718 218.284 888.495 242.152C987.271 266.019 1076.14 363.415 1146.53 311.419C1216.92 259.423 1264.59 159.187 1370.54 109.359C1476.49 59.5312 1486.31 2.65094 1581.39 19.429C1657.46 32.8513 1736.97 49.9611 1767.21 56.8383M-407.18 908.685C-255.372 856.534 -260.125 895.713 -146.452 707.506C-32.7793 519.299 -35.9265 484.492 3.12668 411.925C41.4991 340.623 93.5557 257.116 236.098 364.976C350.131 451.264 467.415 467.945 511.873 461.882C556.906 455.14 649.412 409.006 706.476 327.179C777.806 224.896 786.781 234.967 885.033 258.399C983.286 281.831 1071.9 378.378 1141.72 326.488C1211.53 274.597 1256.43 173.134 1361.6 123.293C1466.77 73.4519 1478.55 18.5739 1573.12 34.9703C1648.77 48.0875 1727.84 64.8598 1757.93 71.6063M-393.602 919.465C-245.492 865.882 -249.155 902.074 -139.405 718.818C-29.6547 535.562 -32.5368 501.183 5.53009 429.945C43.4616 358.962 95.0191 272.143 237.015 378.93C350.612 464.36 467.175 484.256 511.346 478.098C558.088 473.314 647.898 425.136 704.377 343.636C774.976 241.761 783.926 251.744 881.653 274.745C979.38 297.745 1067.74 393.447 1136.98 341.664C1206.22 289.881 1248.34 187.207 1352.73 137.357C1457.11 87.5069 1470.88 34.6192 1564.92 50.6373C1640.15 63.4518 1718.8 79.8892 1748.72 86.506M-379.999 930.265C-235.596 875.27 -238.186 908.469 -132.328 730.185C-26.4703 551.901 -29.0848 517.949 8.00409 448.045C45.4969 377.382 96.5361 287.255 237.981 392.973C351.136 477.547 466.998 500.663 510.883 494.412C559.346 491.577 646.449 441.369 702.346 360.198C772.217 258.736 781.142 268.632 878.341 291.203C975.541 313.775 1063.65 408.634 1132.31 356.962C1200.98 305.29 1240.31 201.419 1343.91 151.565C1447.52 101.71 1463.28 50.8003 1556.79 66.4433C1631.6 78.9577 1709.82 95.063 1739.58 101.551M-366.369 941.085C-225.68 884.7 -227.215 914.9 -125.219 741.61C-23.2224 568.32 -25.5667 534.792 10.5523 466.228C47.6087 395.887 98.1103 302.454 238.998 407.107C351.709 490.829 466.89 517.168 510.488 510.826C560.684 509.929 645.069 457.708 700.386 376.87C769.532 275.822 778.431 285.631 875.102 307.778C971.772 329.924 1059.62 423.942 1127.71 372.384C1195.81 320.826 1232.34 215.775 1335.16 165.92C1437.99 116.065 1455.76 67.1206 1548.74 82.3918C1623.13 94.6088 1700.92 110.384 1730.51 116.745M-352.731 951.938C-215.762 894.184 -216.26 921.38 -118.095 753.104C-19.9294 584.829 -22.0012 551.724 13.1563 484.504L13.5224 483.804C50.1119 413.845 100.191 318.096 240.05 421.343C352.311 504.216 466.832 533.784 510.143 527.352C562.083 528.383 643.739 474.164 698.479 393.66C766.903 293.031 775.776 302.754 871.916 324.478C968.056 346.203 1055.63 439.382 1123.16 387.94C1190.69 336.499 1224.41 230.284 1326.46 180.432C1428.5 130.581 1448.29 83.59 1540.75 98.4927C1614.71 110.415 1692.07 125.864 1721.5 132.098M-339.047 962.8C-205.806 903.699 -205.284 927.884 -110.92 764.644C-16.5552 601.405 -18.3519 568.72 15.8522 502.85C52.0424 433.159 101.412 333.123 241.172 435.658C352.98 517.686 466.861 550.485 509.884 543.965C563.581 546.914 642.496 490.713 696.661 410.547C764.367 310.34 773.213 319.976 868.821 341.282C964.428 362.588 1051.74 454.931 1118.69 403.609C1185.65 352.287 1216.57 244.923 1317.83 195.079C1419.1 145.236 1440.92 100.186 1532.84 114.723C1606.39 126.353 1683.31 141.478 1712.57 147.586M-325.341 973.678C-195.833 913.252 -194.31 934.42 -103.715 776.238C-13.121 618.055 -14.6401 585.789 18.619 521.274C54.3795 451.911 103.154 348.576 242.343 450.059C353.693 531.245 466.954 567.281 509.689 560.674C565.155 565.53 641.319 507.362 694.911 427.537C761.901 327.755 770.721 337.305 865.794 358.196C960.868 379.087 1047.9 470.596 1114.29 419.396C1180.68 368.197 1208.78 259.699 1309.27 209.868C1409.76 160.036 1433.62 116.915 1525.01 131.091C1598.13 142.431 1674.62 157.234 1703.72 163.218M-311.602 984.582C-185.835 922.851 -183.328 940.997 -96.4728 787.893C-9.61752 634.788 -10.8566 602.939 21.4659 539.783C56.7988 470.751 104.96 364.119 243.572 464.554C354.461 544.902 467.122 584.178 509.57 577.487C566.815 584.24 640.217 524.121 693.239 444.638C759.517 345.285 768.309 354.749 862.847 375.228C957.385 395.708 1044.14 486.385 1109.96 435.311C1175.78 384.237 1201.06 274.622 1300.78 224.807C1400.49 174.991 1426.4 133.786 1517.26 147.603C1589.96 158.656 1666 173.14 1694.94 179.001M-297.854 995.515C-175.834 932.503 -172.362 947.621 -89.2146 799.615C-6.06769 651.609 -7.02424 620.174 24.3698 558.384C59.2776 489.683 106.806 379.759 244.836 479.15C355.26 558.663 467.341 601.182 509.501 594.408C568.538 603.047 639.167 540.994 691.622 461.857C757.19 362.936 765.954 372.313 859.955 392.384C953.956 412.455 1040.43 502.303 1105.69 451.358C1170.94 400.413 1193.39 289.695 1292.33 239.9C1391.27 190.105 1419.24 150.804 1509.57 164.265C1581.84 175.034 1657.45 189.202 1686.22 194.94M-284.059 1006.46C-165.793 942.185 -161.373 954.27 -81.9033 811.383C-2.43369 668.496 -3.1054 637.474 27.3687 577.053C61.8536 508.686 108.729 395.472 246.173 493.824C356.129 572.505 467.649 618.272 509.522 611.417C570.362 621.931 638.207 557.959 690.097 479.17C754.959 380.685 763.695 389.977 857.157 409.643C950.62 429.308 1036.81 518.33 1101.5 467.516C1166.19 416.702 1185.81 304.899 1283.97 255.128C1382.13 205.358 1412.18 167.947 1501.98 181.056C1573.82 191.543 1648.99 205.398 1677.59 211.015M-270.242 1017.42C-155.736 951.904 -150.385 960.951 -74.5623 823.203C1.26096 685.456 0.876587 654.845 30.4391 595.798C64.5033 527.766 110.708 411.265 247.561 508.582C357.043 586.435 468.024 635.453 509.609 628.518C572.264 640.898 637.315 575.023 688.642 496.585C752.801 398.538 761.508 407.745 854.43 427.009C947.352 446.273 1033.25 534.47 1097.38 483.791C1161.51 433.111 1178.28 320.237 1275.67 270.495C1373.06 220.754 1405.2 185.221 1494.46 197.981C1565.87 208.189 1640.6 221.733 1669.04 227.23M-256.388 1028.4C-145.649 961.671 -139.386 967.674 -67.178 835.086C5.02998 702.498 4.93533 672.296 33.5946 614.629C67.2405 546.935 112.755 427.149 249.012 523.435C358.017 600.464 468.478 652.737 509.775 645.723C574.257 659.958 636.502 592.196 687.27 514.111C750.729 416.506 759.407 425.628 851.787 444.494C944.167 463.36 1029.77 550.736 1093.34 500.193C1156.91 449.65 1170.83 335.722 1267.45 286.013C1364.07 236.304 1398.3 202.637 1487.02 215.051C1558 224.983 1632.29 238.219 1660.56 243.596M-242.538 1039.43C-135.571 971.506 -128.414 974.459 -59.7902 847.051C8.83379 719.643 9.03135 689.848 36.7959 633.565C70.0258 566.21 114.832 443.144 250.487 538.404C359.011 614.611 468.973 670.142 509.982 663.052C576.302 679.131 635.731 609.497 685.941 531.769C748.704 434.609 757.352 443.647 849.189 462.117C941.026 480.588 1026.33 567.145 1089.34 516.742C1152.35 466.339 1163.42 351.373 1259.26 301.701C1355.11 252.029 1391.45 220.215 1479.64 232.286C1550.19 241.944 1624.03 254.875 1652.14 260.134M-228.627 1050.46C-125.438 981.356 -117.405 981.254 -52.3339 859.046C12.7374 736.838 13.2295 707.448 40.1078 652.554C72.9239 585.541 117.002 459.196 252.05 553.434C360.09 628.824 469.574 687.616 510.294 680.452C578.463 698.363 635.067 626.875 684.722 549.506C746.791 452.794 755.409 461.747 846.701 479.826C937.992 497.905 1022.99 583.646 1085.44 533.386C1147.89 483.125 1156.11 367.136 1251.18 317.505C1346.26 267.874 1384.72 237.901 1472.37 249.633C1542.48 259.019 1615.88 271.649 1643.82 276.79M-214.688 1061.49C-115.284 991.243 -106.394 988.082 -44.8435 871.093C16.7065 754.105 17.4956 725.117 43.496 671.617C75.9006 604.947 119.231 475.328 253.669 568.548C361.22 643.125 470.245 705.182 510.677 697.944C580.707 717.677 634.474 644.35 683.577 567.343C744.955 471.083 753.543 479.951 844.289 497.642C935.034 515.333 1019.73 600.26 1081.62 550.145C1143.51 500.031 1148.86 383.035 1243.17 333.449C1337.47 283.863 1378.07 255.717 1465.17 267.113C1534.86 276.231 1607.81 288.561 1635.58 293.586M-200.718 1072.56C-105.105 1001.17 -95.3738 994.948 -37.3136 883.2C20.7467 771.451 21.8351 742.864 46.9661 690.762C78.9616 624.437 121.526 491.546 255.348 583.754C362.406 657.52 470.993 722.845 511.137 715.536C583.039 737.08 633.959 661.931 682.512 585.287C743.204 489.482 751.761 498.267 841.958 515.573C932.156 532.879 1016.54 616.994 1077.87 567.028C1139.21 517.062 1141.69 399.075 1235.23 349.539C1328.76 300.002 1371.5 273.67 1458.07 284.734C1527.32 293.586 1599.83 305.619 1627.43 310.529M-186.734 1083.65C-94.9171 1011.16 -84.3641 1001.86 -29.7622 895.375C24.8398 788.885 26.2299 760.697 50.5001 709.998C82.0888 644.02 123.868 507.861 257.07 599.06C363.631 672.019 471.8 740.615 511.656 733.236C585.135 756.484 633.104 680.263 680.912 604.298L681.51 603.348C741.518 508.002 750.043 516.703 839.692 533.627C929.34 550.552 1013.4 633.858 1074.19 584.043C1134.97 534.229 1134.57 415.267 1227.34 365.784L1230.16 364.281C1321.03 315.805 1365.88 291.88 1451.03 302.505C1519.84 311.093 1591.9 322.832 1619.34 327.628M-172.703 1094.75C-84.6872 1021.17 -73.3304 1008.8 -22.1551 907.591C29.0203 806.379 30.7145 778.588 54.1323 729.297C85.3166 663.667 126.292 524.244 258.869 614.439C364.93 686.595 472.701 758.465 512.268 751.018C587.948 776.152 633.143 697.407 680.605 621.498C739.932 526.613 748.426 535.231 837.523 551.777C926.62 568.324 1010.37 650.824 1070.6 601.164C1130.83 551.503 1127.55 431.583 1219.55 382.157C1311.56 332.731 1358.61 309.989 1444.09 320.398C1512.47 328.726 1584.08 340.173 1611.34 344.856M-158.644 1105.86C-74.4361 1031.22 -62.2935 1015.77 -14.513 919.859C33.2675 823.946 35.2681 796.549 57.8421 748.671C88.6243 683.391 128.777 540.707 260.723 629.903C366.28 701.259 473.674 776.406 512.952 768.893C590.539 795.805 632.856 715.285 679.776 639.749C738.425 545.328 746.887 553.862 835.432 570.034C923.977 586.206 1007.4 667.903 1067.08 618.4C1126.76 568.896 1120.59 448.033 1211.83 398.669C1303.07 349.305 1352.3 328.338 1437.23 338.425C1505.17 346.494 1576.34 357.653 1603.43 362.223M-144.55 1117C-64.1548 1041.32 -51.2445 1022.78 -6.82709 932.186C37.5903 841.59 39.8998 814.586 61.6385 768.124C92.021 703.197 131.332 557.256 262.643 645.456C367.692 716.016 474.729 794.444 513.719 786.865C593.222 815.545 632.652 733.268 679.032 658.105C737.008 564.153 745.437 572.604 833.428 588.405C921.42 604.205 1004.51 685.101 1063.65 635.757C1122.78 586.414 1113.71 464.624 1204.19 415.326C1294.66 366.027 1346.08 346.823 1430.46 356.59C1497.97 364.404 1568.69 375.277 1595.61 379.736M-130.447 1128.17C-53.8706 1051.46 -40.2108 1029.84 0.875458 944.577C41.9617 859.316 44.5823 832.703 65.4944 787.662C95.4794 723.089 133.929 573.895 264.601 661.104C369.139 730.872 475.839 812.582 514.54 804.94C595.972 835.376 632.504 751.358 678.347 676.572C735.652 583.09 744.049 591.459 831.484 606.892C918.921 622.325 1001.68 702.423 1060.27 653.242C1118.85 604.06 1106.88 481.36 1196.6 432.131C1286.31 382.903 1339.93 365.447 1423.76 374.899C1490.83 382.46 1561.09 393.05 1587.84 397.399M-116.292 1139.34C-43.5389 1061.63 -29.1478 1036.92 8.63928 957.011C46.4264 877.105 49.3604 850.881 69.4546 807.266C99.0445 743.048 136.615 590.604 266.642 676.828C370.664 745.807 477.048 830.803 515.46 823.099C598.832 855.28 632.456 769.537 677.766 695.131C734.403 602.123 742.766 610.409 829.646 625.478C916.525 640.546 998.953 719.848 1056.99 670.833C1115.02 621.817 1100.15 498.222 1189.11 449.067C1278.06 399.912 1333.89 384.193 1417.17 393.332C1483.8 400.643 1553.61 410.952 1580.19 415.193M-102.111 1150.52C-33.1864 1071.84 -18.0822 1044.03 16.4378 969.495C50.9578 894.963 54.2076 869.124 73.4924 826.94C102.69 763.08 139.361 607.391 268.74 692.633C372.243 760.827 478.33 849.11 516.454 841.346C601.776 875.261 632.483 787.81 677.261 713.786C733.234 621.255 741.563 629.459 827.885 644.167C914.206 658.874 996.295 737.384 1053.79 688.536C1111.28 639.689 1093.5 515.215 1181.69 466.139C1269.88 417.062 1327.93 403.065 1410.66 411.895C1476.85 418.958 1546.21 428.99 1572.61 433.123M-87.8974 1161.73C-22.8072 1082.09 -7.00799 1051.17 24.277 982.032C55.5621 912.892 59.13 887.438 77.6139 846.688C106.421 783.188 142.175 624.256 270.9 708.522C373.88 775.935 479.692 867.508 517.527 859.686C604.81 895.323 632.589 806.181 676.839 732.54C732.151 640.49 740.447 648.612 826.209 662.962C911.971 677.312 993.716 755.032 1050.66 706.355C1107.61 657.679 1086.91 532.343 1174.35 483.348C1261.78 434.353 1322.06 422.066 1404.24 430.59C1469.99 437.409 1538.89 447.166 1565.12 451.192M-73.6803 1172.97C-12.4292 1092.41 4.04679 1058.38 32.1291 994.652C60.2114 930.922 64.0996 905.851 81.7915 866.54C110.211 803.4 145.029 641.232 273.095 724.525C375.548 791.16 481.105 886.027 518.652 878.147C607.907 915.496 632.749 824.678 676.473 751.425C731.127 659.857 739.388 667.898 824.59 681.894C909.791 695.89 991.189 772.822 1047.59 724.32C1104 675.817 1080.38 549.635 1167.06 500.726C1253.73 451.817 1316.25 441.226 1397.88 449.447C1463.18 456.024 1531.63 465.509 1557.69 469.43M-59.4077 1184.21C-2.00052 1102.73 15.1339 1065.59 40.0458 1007.29C64.9576 948.99 69.1686 924.299 86.077 886.432C114.11 823.655 147.973 658.253 275.377 740.579C377.3 806.44 482.622 904.601 519.88 896.667C611.119 935.715 633.014 843.239 676.214 770.375C730.214 679.294 738.44 687.254 823.08 700.899C907.719 714.544 988.766 790.692 1044.63 742.365C1100.49 694.039 1073.95 567.028 1159.87 518.209C1245.79 469.39 1310.56 460.482 1391.63 468.404C1456.5 474.741 1524.49 483.957 1550.38 487.772M-45.1049 1195.45C8.45354 1113.09 26.2282 1072.84 48.002 1019.98C69.7759 967.128 74.3117 942.814 90.4454 906.395C118.096 843.982 150.985 675.351 277.721 756.714C379.11 821.805 484.218 923.264 521.187 915.276C614.419 956.012 633.358 861.895 676.038 789.422C729.387 698.83 737.578 706.709 821.654 720.007C905.73 733.305 986.422 808.671 1041.75 760.524C1097.07 712.377 1067.6 584.552 1152.76 535.827C1237.93 487.103 1304.96 479.863 1385.48 487.489C1449.89 493.59 1517.43 502.54 1543.14 506.252M-30.7712 1206.72C18.9338 1123.48 37.3303 1080.11 55.9986 1032.72C74.6669 985.334 79.53 961.397 94.8977 926.429C122.167 864.383 154.064 692.527 280.128 772.932C380.979 837.256 485.893 942.014 522.573 933.974C617.811 976.387 633.784 880.645 675.945 808.566C728.647 718.467 736.802 726.265 820.314 739.219C903.825 752.174 984.158 826.76 1038.94 778.796C1093.73 730.831 1061.32 602.208 1145.73 553.582C1230.14 504.955 1299.45 499.372 1379.41 506.705C1443.38 512.572 1510.46 521.258 1536 524.867M-16.4206 1218.01C29.4263 1133.93 48.4265 1087.44 64.0218 1045.53C79.617 1003.62 84.8096 980.06 99.42 946.548C126.311 884.87 157.196 709.794 282.584 789.245C382.894 852.807 487.634 960.866 524.026 952.776C621.279 996.854 634.277 899.503 675.923 827.821C727.98 738.218 736.099 745.935 819.045 758.549C901.99 771.164 981.96 844.973 1036.21 797.194C1090.46 749.414 1055.11 620.01 1138.77 571.486C1222.43 522.961 1294.01 519.02 1373.42 526.065C1436.95 531.7 1503.57 540.125 1528.93 543.633" stroke="url(#paint0_linear_30_1943)"/>
<defs>
<linearGradient id="paint0_linear_30_1943" x1="671.151" y1="1.00395" x2="1115.5" y2="953.512" gradientUnits="userSpaceOnUse">
<stop stop-color="white"/>
<stop offset="1" stop-color="white" stop-opacity="0"/>
</linearGradient>
</defs>
</svg>
